<?xml version="1.0" encoding="utf-8"?><!-- Uploaded to: SVG Repo, www.svgrepo.com, Generator: SVG Repo Mixer Tools -->
<svg width="800px" height="800px" viewBox="0 0 24 24" fill="none" xmlns="http://www.w3.org/2000/svg">
<path d="M19.0008 17.5V6.5C19.0637 5.37366 18.6784 4.2682 17.9289 3.42505C17.1794 2.5819 16.1267 2.06958 15.0008 2H9.00079C7.87484 2.06958 6.82222 2.5819 6.07275 3.42505C5.32328 4.2682 4.93788 5.37366 5.00079 6.5V17.5C4.93788 18.6263 5.32328 19.7317 6.07275 20.5748C6.82222 21.418 7.87484 21.9303 9.00079 21.9999H15.0008C16.1267 21.9303 17.1794 21.418 17.9289 20.5748C18.6784 19.7317 19.0637 18.6263 19.0008 17.5V17.5Z" stroke="#000000" stroke-width="1.5" stroke-linecap="round" stroke-linejoin="round"/>
<path d="M12 18.5C13.933 18.5 15.5 16.933 15.5 15C15.5 13.067 13.933 11.5 12 11.5C10.067 11.5 8.5 13.067 8.5 15C8.5 16.933 10.067 18.5 12 18.5Z" stroke="#000000" stroke-width="1.5" stroke-linecap="round" stroke-linejoin="round"/>
<path d="M14 6H10" stroke="#000000" stroke-width="1.5" stroke-linecap="round" stroke-linejoin="round"/>
</svg>