<?xml version="1.0" encoding="iso-8859-1"?>
<!-- Uploaded to: SVG Repo, www.svgrepo.com, Generator: SVG Repo Mixer Tools -->
<!DOCTYPE svg PUBLIC "-//W3C//DTD SVG 1.1//EN" "http://www.w3.org/Graphics/SVG/1.1/DTD/svg11.dtd">
<svg fill="#000000" height="80px" width="80px" version="1.1" id="Capa_1" xmlns="http://www.w3.org/2000/svg" xmlns:xlink="http://www.w3.org/1999/xlink" 
	 viewBox="0 0 353.951 353.951" xml:space="preserve">
<g id="Escenario">
	<path d="M351.404,262.753l-28.358-19.965V42.484H28.337v200.459L2.346,262.9l0.004,0.005C0.923,264.002,0,265.721,0,267.659v37.808
		c0,3.313,2.687,6,6,6h341.95c3.313,0,6-2.687,6-6v-37.735C353.974,265.79,353.051,263.912,351.404,262.753z M40.337,167.294h10.922
		v2.102H40.337V167.294z M40.337,181.395h10.922v58.506H40.337V181.395z M63.259,198.961l16.687,40.94H63.259V198.961z
		 M92.906,239.901L64.4,169.968c9.972-9.225,40.176-38.66,53.089-67.926h116.406c12.913,29.267,43.117,58.701,53.089,67.926
		l-28.506,69.933H92.906z M311.046,169.395h-10.922v-2.102h10.922V169.395z M288.124,198.961v40.94h-16.687L288.124,198.961z
		 M300.124,181.395h10.922v58.506h-10.922V181.395z M311.046,155.294h-10.922V79.241h10.922V155.294z M288.124,130.856
		l-16.957-51.615h16.957V130.856z M258.536,79.241l22.241,67.702c-17.901-18.984-39.645-46.762-40.791-67.702H258.536z
		 M227.973,79.241c0.144,3.524,0.733,7.139,1.679,10.801h-107.92c0.946-3.662,1.534-7.276,1.679-10.801H227.973z M70.628,146.874
		l22.219-67.633h18.556C110.253,101.286,87.334,129.271,70.628,146.874z M63.259,130.856V79.241h16.957L63.259,130.856z
		 M51.259,155.294H40.337V79.241h10.922V155.294z M315.145,251.901l13.86,9.758H23.666l12.708-9.758H315.145z M311.046,54.484
		v12.757H40.337V54.484H311.046z M341.95,299.467H12v-25.808h329.95V299.467z"/>
</g>
</svg>